<svg data-v-423bf9ae="" xmlns="http://www.w3.org/2000/svg" viewBox="0 0 362.75509498060785 60" class="font"><!----><!----><defs data-v-423bf9ae=""><linearGradient data-v-423bf9ae="" gradientTransform="rotate(25)" id="3cdc14a5-867c-4518-b1e0-5fffb9208991" x1="0%" y1="0%" x2="100%" y2="0%"><stop data-v-423bf9ae="" offset="0%" style="stop-color: rgb(54, 22, 172); stop-opacity: 1;"></stop><stop data-v-423bf9ae="" offset="100%" style="stop-color: rgb(224, 155, 237); stop-opacity: 1;"></stop></linearGradient></defs><g data-v-423bf9ae="" id="6ea4e139-2585-477a-9eb6-f3671fa69a88" fill="url(#3cdc14a5-867c-4518-b1e0-5fffb9208991)" transform="matrix(6.1224488604322,0,0,6.1224488604322,7.274695121850527e-7,-4.285714427340487)"><path d="M3.51 0.70L3.51 0.70L3.51 0.70Q3.92 0.77 4.19 1.08L4.19 1.08L4.19 1.08Q4.45 1.39 4.45 1.81L4.45 1.81L4.45 2.84L4.45 3.29L2.91 3.29L2.91 2.84L2.91 2.23L1.54 2.23L1.54 8.97L2.91 8.97L2.91 8.34L2.91 7.90L4.45 7.90L4.45 8.34L4.45 9.39L4.45 9.39Q4.45 9.81 4.19 10.12L4.19 10.12L4.19 10.12Q3.92 10.43 3.51 10.50L3.51 10.50L0.94 10.50L0.94 10.50Q0.53 10.43 0.27 10.12L0.27 10.12L0.27 10.12Q0 9.81 0 9.39L0 9.39L0 1.81L0 1.81Q0 1.39 0.27 1.08L0.27 1.08L0.27 1.08Q0.53 0.77 0.94 0.70L0.94 0.70L3.51 0.70ZM8.26 0.70L8.26 0.70L9.80 0.70L9.80 10.50L8.26 10.50L8.26 5.60L6.90 5.60L6.90 10.50L5.36 10.50L5.36 4.06L6.89 4.06L5.36 1.02L5.36 0.70L6.90 0.70L6.90 4.06L8.26 4.06L8.26 0.70ZM14.21 0.70L14.21 0.70L15.79 10.50L14.22 10.50L13.26 3.70L12.87 6.90L12.87 6.92L13.26 6.92L13.26 8.46L12.61 8.46L12.29 10.50L10.74 10.50L11.06 8.46L10.71 8.46L10.71 6.92L11.31 6.92L12.31 0.70L14.21 0.70ZM17.88 10.50L17.88 10.50L16.34 10.50L16.34 0.70L17.88 0.70L17.88 10.50ZM22.29 0.70L22.29 0.70L23.27 0.70L23.27 0.70L23.27 10.50L23.27 10.50L21.73 10.50L21.73 10.50L20.33 6.12L20.33 10.50L20.33 10.50L18.79 10.50L18.79 0.70L19.35 0.70L19.35 0.70L20.33 0.70L20.33 0.70L20.33 0.73L21.73 5.35L21.73 0.70L22.29 0.70L22.29 0.70ZM25.72 8.96L25.72 8.96L28.15 8.96L28.15 10.50L25.72 10.50L24.18 10.50L24.18 10.50L24.18 8.96L24.18 8.96L24.18 0.70L25.72 0.70L25.72 8.96ZM30.63 10.50L30.63 10.50L29.09 10.50L29.09 0.70L30.63 0.70L30.63 10.50ZM35.04 0.70L35.04 0.70L36.02 0.70L36.02 0.70L36.02 10.50L36.02 10.50L34.48 10.50L34.48 10.50L33.08 6.12L33.08 10.50L33.08 10.50L31.54 10.50L31.54 0.70L32.10 0.70L32.10 0.70L33.08 0.70L33.08 0.70L33.08 0.73L34.48 5.35L34.48 0.70L35.04 0.70L35.04 0.70ZM39.75 0.71L41.45 0.71L39.65 4.86L41.43 10.50L41.05 10.50L40.00 10.50L39.79 10.50L38.65 6.90L38.47 7.28L38.47 10.50L38.19 10.50L37.21 10.50L36.93 10.50L36.93 4.07L38.47 4.07L39.75 0.71ZM36.93 1.02L36.93 0.70L38.47 0.70L38.47 4.07L36.93 1.02ZM48.05 0.70L48.05 0.70L49.03 0.70L49.03 0.70L49.03 10.50L49.03 10.50L47.49 10.50L47.49 10.50L46.09 6.12L46.09 10.50L46.09 10.50L44.55 10.50L44.55 0.70L45.11 0.70L45.11 0.70L46.09 0.70L46.09 0.70L46.09 0.73L47.49 5.35L47.49 0.70L48.05 0.70L48.05 0.70ZM51.48 0.70L51.48 0.70L53.94 0.70L53.94 1.68L53.94 2.24L51.48 2.24L51.48 4.07L53.44 4.07L53.44 4.35L53.44 5.33L53.44 5.61L51.48 5.61L51.48 10.50L49.94 10.50L49.94 9.48L49.94 1.22L49.94 0.70L51.48 0.70ZM59.25 0.70L59.25 0.70L59.25 2.24L57.86 2.24L57.86 8.67L57.86 10.50L56.32 10.50L56.32 8.67L56.32 2.24L54.84 2.24L54.84 0.70L56.32 0.70L57.86 0.70L59.25 0.70Z"></path></g><!----><!----></svg>